ffmpeg version 4.4.2-0ubuntu0.22.04.1 Copyright (c) 2000-2021 the FFmpeg developers
  built with gcc 11 (Ubuntu 11.2.0-19ubuntu1)
  configuration: --prefix=/usr --extra-version=0ubuntu0.22.04.1 --toolchain=hardened --libdir=/usr/lib/x86_64-linux-gnu --incdir=/usr/include/x86_64-linux-gnu --arch=amd64 --enable-gpl --disable-stripping --enable-gnutls --enable-ladspa --enable-libaom --enable-libass --enable-libbluray --enable-libbs2b --enable-libcaca --enable-libcdio --enable-libcodec2 --enable-libdav1d --enable-libflite --enable-libfontconfig --enable-libfreetype --enable-libfribidi --enable-libgme --enable-libgsm --enable-libjack --enable-libmp3lame --enable-libmysofa --enable-libopenjpeg --enable-libopenmpt --enable-libopus --enable-libpulse --enable-librabbitmq --enable-librubberband --enable-libshine --enable-libsnappy --enable-libsoxr --enable-libspeex --enable-libsrt --enable-libssh --enable-libtheora --enable-libtwolame --enable-libvidstab --enable-libvorbis --enable-libvpx --enable-libwebp --enable-libx265 --enable-libxml2 --enable-libxvid --enable-libzimg --enable-libzmq --enable-libzvbi --enable-lv2 --enable-omx --enable-openal --enable-opencl --enable-opengl --enable-sdl2 --enable-pocketsphinx --enable-librsvg --enable-libmfx --enable-libdc1394 --enable-libdrm --enable-libiec61883 --enable-chromaprint --enable-frei0r --enable-libx264 --enable-shared
  libavutil      56. 70.100 / 56. 70.100
  libavcodec     58.134.100 / 58.134.100
  libavformat    58. 76.100 / 58. 76.100
  libavdevice    58. 13.100 / 58. 13.100
  libavfilter     7.110.100 /  7.110.100
  libswscale      5.  9.100 /  5.  9.100
  libswresample   3.  9.100 /  3.  9.100
  libpostproc    55.  9.100 / 55.  9.100
Input #0, concat, from '/home/paulo/sportscuts/agents/TakeVideoProject/concat_list.txt':
  Duration: N/A, start: 0.000000, bitrate: 59 kb/s
  Stream #0:0(und): Video: hevc (Main) (hev1 / 0x31766568), yuvj420p(pc, bt470bg/bt470bg/smpte170m), 1280x960, 59 kb/s, 24.86 fps, 29.83 tbr, 12800 tbn, 25 tbc
    Metadata:
      handler_name    : VideoHandler
      vendor_id       : [0][0][0][0]
Stream mapping:
  Stream #0:0 -> #0:0 (hevc (native) -> h264 (libx264))
Press [q] to stop, [?] for help
[swscaler @ 0x5e70b34daa00] deprecated pixel format used, make sure you did set range correctly
[libx264 @ 0x5e70b32fdd00] using cpu capabilities: MMX2 SSE2Fast LZCNT SSSE3 SSE4.2
[libx264 @ 0x5e70b32fdd00] profile Constrained Baseline, level 3.2, 4:2:0, 8-bit
[libx264 @ 0x5e70b32fdd00] 264 - core 163 r3060 5db6aa6 - H.264/MPEG-4 AVC codec - Copyleft 2003-2021 - http://www.videolan.org/x264.html - options: cabac=0 ref=1 deblock=0:0:0 analyse=0:0 me=dia subme=0 psy=1 psy_rd=1.00:0.00 mixed_ref=0 me_range=16 chroma_me=1 trellis=0 8x8dct=0 cqm=0 deadzone=21,11 fast_pskip=1 chroma_qp_offset=0 threads=3 lookahead_threads=1 sliced_threads=0 nr=0 decimate=1 interlaced=0 bluray_compat=0 constrained_intra=0 bframes=0 weightp=0 keyint=250 keyint_min=25 scenecut=0 intra_refresh=0 rc=crf mbtree=0 crf=20.0 qcomp=0.60 qpmin=0 qpmax=69 qpstep=4 ip_ratio=1.40 aq=0
Output #0, mp4, to '/home/paulo/sportscuts/agents/TakeVideoProject/pending/1_clip_20250901_201811.mp4':
  Metadata:
    encoder         : Lavf58.76.100
  Stream #0:0(und): Video: h264 (avc1 / 0x31637661), yuv420p(tv, bt470bg/bt470bg/smpte170m, progressive), 1280x960, q=2-31, 29.83 fps, 11456 tbn
    Metadata:
      handler_name    : VideoHandler
      vendor_id       : [0][0][0][0]
      encoder         : Lavc58.134.100 libx264
    Side data:
      cpb: bitrate max/min/avg: 0/0/0 buffer size: 0 vbv_delay: N/A
frame=    2 fps=0.0 q=0.0 size=       0kB time=00:00:00.00 bitrate=N/A dup=1 drop=0 speed=   0x    frame=   34 fps=0.0 q=10.0 size=     256kB time=00:00:00.97 bitrate=2157.6kbits/s dup=6 drop=0 speed= 1.9x    frame=   77 fps= 76 q=10.0 size=     256kB time=00:00:02.41 bitrate= 869.1kbits/s dup=13 drop=0 speed=2.37x    frame=  108 fps= 71 q=10.0 size=     256kB time=00:00:03.45 bitrate= 607.5kbits/s dup=18 drop=0 speed=2.26x    frame=  129 fps= 62 q=10.0 size=     256kB time=00:00:04.15 bitrate= 504.6kbits/s dup=22 drop=0 speed=2.01x    frame=  153 fps= 59 q=10.0 size=     256kB time=00:00:04.96 bitrate= 422.8kbits/s dup=26 drop=0 speed=1.93x    frame=  172 fps= 55 q=10.0 size=     256kB time=00:00:05.59 bitrate= 374.7kbits/s dup=29 drop=0 speed=1.79x    frame=  190 fps= 52 q=10.0 size=     512kB time=00:00:06.20 bitrate= 676.4kbits/s dup=32 drop=0 speed=1.69x    frame=  219 fps= 53 q=11.0 size=     512kB time=00:00:07.17 bitrate= 584.8kbits/s dup=37 drop=0 speed=1.72x    frame=  254 fps= 54 q=20.0 size=     768kB time=00:00:08.34 bitrate= 753.8kbits/s dup=43 drop=0 speed=1.79x    frame=  287 fps= 55 q=10.0 size=    1024kB time=00:00:09.45 bitrate= 887.5kbits/s dup=48 drop=0 speed=1.82x    frame=  327 fps= 57 q=10.0 size=    1024kB time=00:00:10.79 bitrate= 777.2kbits/s dup=55 drop=0 speed= 1.9x    frame=  370 fps= 60 q=10.0 size=    1280kB time=00:00:12.23 bitrate= 857.1kbits/s dup=62 drop=0 speed=1.97x    frame=  416 fps= 62 q=11.0 size=    1792kB time=00:00:13.77 bitrate=1065.6kbits/s dup=70 drop=0 speed=2.06x    frame=  458 fps= 64 q=11.0 size=    1792kB time=00:00:15.18 bitrate= 966.8kbits/s dup=77 drop=0 speed=2.11x    frame=  501 fps= 65 q=10.0 size=    2048kB time=00:00:16.62 bitrate=1009.1kbits/s dup=84 drop=0 speed=2.16x    frame=  545 fps= 66 q=10.0 size=    2560kB time=00:00:18.10 bitrate=1158.6kbits/s dup=91 drop=0 speed= 2.2x    frame=  597 fps= 68 q=11.0 size=    2560kB time=00:00:19.84 bitrate=1056.9kbits/s dup=100 drop=0 speed=2.27x    frame=  642 fps= 69 q=10.0 size=    2560kB time=00:00:21.35 bitrate= 982.2kbits/s dup=107 drop=0 speed= 2.3x    frame=  688 fps= 70 q=10.0 size=    2560kB time=00:00:22.89 bitrate= 916.0kbits/s dup=115 drop=0 speed=2.34x    frame=  734 fps= 72 q=10.0 size=    3072kB time=00:00:24.43 bitrate=1029.9kbits/s dup=123 drop=0 speed=2.38x    frame=  778 fps= 72 q=10.0 size=    3328kB time=00:00:25.91 bitrate=1052.2kbits/s dup=130 drop=0 speed=2.41x    frame=  825 fps= 73 q=10.0 size=    3328kB time=00:00:27.48 bitrate= 991.9kbits/s dup=138 drop=0 speed=2.44x    frame=  874 fps= 74 q=10.0 size=    3328kB time=00:00:29.12 bitrate= 936.0kbits/s dup=146 drop=0 speed=2.47x    [mp4 @ 0x5e70b32dda00] Starting second pass: moving the moov atom to the beginning of the file
frame=  895 fps= 74 q=-1.0 Lsize=    3530kB time=00:00:29.96 bitrate= 965.0kbits/s dup=150 drop=0 speed=2.49x    
video:3526kB audio:0kB subtitle:0kB other streams:0kB global headers:0kB muxing overhead: 0.124614%
[libx264 @ 0x5e70b32fdd00] frame I:4     Avg QP:10.25  size:203344
[libx264 @ 0x5e70b32fdd00] frame P:891   Avg QP:10.56  size:  3138
[libx264 @ 0x5e70b32fdd00] mb I  I16..4: 100.0%  0.0%  0.0%
[libx264 @ 0x5e70b32fdd00] mb P  I16..4:  0.3%  0.0%  0.0%  P16..4:  6.9%  0.0%  0.0%  0.0%  0.0%    skip:92.7%
[libx264 @ 0x5e70b32fdd00] coded y,uvDC,uvAC intra: 48.0% 0.0% 0.0% inter: 2.7% 0.0% 0.0%
[libx264 @ 0x5e70b32fdd00] i16 v,h,dc,p: 54% 14% 16% 16%
[libx264 @ 0x5e70b32fdd00] i8c dc,h,v,p: 100%  0%  0%  0%
[libx264 @ 0x5e70b32fdd00] kb/s:962.60
ffmpeg version 4.4.2-0ubuntu0.22.04.1 Copyright (c) 2000-2021 the FFmpeg developers
  built with gcc 11 (Ubuntu 11.2.0-19ubuntu1)
  configuration: --prefix=/usr --extra-version=0ubuntu0.22.04.1 --toolchain=hardened --libdir=/usr/lib/x86_64-linux-gnu --incdir=/usr/include/x86_64-linux-gnu --arch=amd64 --enable-gpl --disable-stripping --enable-gnutls --enable-ladspa --enable-libaom --enable-libass --enable-libbluray --enable-libbs2b --enable-libcaca --enable-libcdio --enable-libcodec2 --enable-libdav1d --enable-libflite --enable-libfontconfig --enable-libfreetype --enable-libfribidi --enable-libgme --enable-libgsm --enable-libjack --enable-libmp3lame --enable-libmysofa --enable-libopenjpeg --enable-libopenmpt --enable-libopus --enable-libpulse --enable-librabbitmq --enable-librubberband --enable-libshine --enable-libsnappy --enable-libsoxr --enable-libspeex --enable-libsrt --enable-libssh --enable-libtheora --enable-libtwolame --enable-libvidstab --enable-libvorbis --enable-libvpx --enable-libwebp --enable-libx265 --enable-libxml2 --enable-libxvid --enable-libzimg --enable-libzmq --enable-libzvbi --enable-lv2 --enable-omx --enable-openal --enable-opencl --enable-opengl --enable-sdl2 --enable-pocketsphinx --enable-librsvg --enable-libmfx --enable-libdc1394 --enable-libdrm --enable-libiec61883 --enable-chromaprint --enable-frei0r --enable-libx264 --enable-shared
  libavutil      56. 70.100 / 56. 70.100
  libavcodec     58.134.100 / 58.134.100
  libavformat    58. 76.100 / 58. 76.100
  libavdevice    58. 13.100 / 58. 13.100
  libavfilter     7.110.100 /  7.110.100
  libswscale      5.  9.100 /  5.  9.100
  libswresample   3.  9.100 /  3.  9.100
  libpostproc    55.  9.100 / 55.  9.100
Input #0, mov,mp4,m4a,3gp,3g2,mj2, from '/home/paulo/sportscuts/agents/TakeVideoProject/pending/1_clip_20250901_201811.mp4':
  Metadata:
    major_brand     : isom
    minor_version   : 512
    compatible_brands: isomiso2avc1mp41
    encoder         : Lavf58.76.100
  Duration: 00:00:30.00, start: 0.000000, bitrate: 963 kb/s
  Stream #0:0(und): Video: h264 (Constrained Baseline) (avc1 / 0x31637661), yuv420p(tv, bt470bg/bt470bg/smpte170m), 1280x960, 962 kb/s, 29.83 fps, 29.83 tbr, 11456 tbn, 59.67 tbc (default)
    Metadata:
      handler_name    : VideoHandler
      vendor_id       : [0][0][0][0]
Stream mapping:
  Stream #0:0 -> #0:0 (h264 (native) -> h264 (libx264))
Press [q] to stop, [?] for help
[libx264 @ 0x557a6f409b40] using cpu capabilities: MMX2 SSE2Fast LZCNT SSSE3 SSE4.2
[libx264 @ 0x557a6f409b40] profile Constrained Baseline, level 4.0, 4:2:0, 8-bit
[libx264 @ 0x557a6f409b40] 264 - core 163 r3060 5db6aa6 - H.264/MPEG-4 AVC codec - Copyleft 2003-2021 - http://www.videolan.org/x264.html - options: cabac=0 ref=1 deblock=0:0:0 analyse=0:0 me=dia subme=0 psy=1 psy_rd=1.00:0.00 mixed_ref=0 me_range=16 chroma_me=1 trellis=0 8x8dct=0 cqm=0 deadzone=21,11 fast_pskip=1 chroma_qp_offset=0 threads=3 lookahead_threads=1 sliced_threads=0 nr=0 decimate=1 interlaced=0 bluray_compat=0 constrained_intra=0 bframes=0 weightp=0 keyint=250 keyint_min=25 scenecut=0 intra_refresh=0 rc=crf mbtree=0 crf=20.0 qcomp=0.60 qpmin=0 qpmax=69 qpstep=4 ip_ratio=1.40 aq=0
Output #0, mp4, to '/home/paulo/sportscuts/agents/TakeVideoProject/pending/vertical_1_clip_20250901_201811.mp4':
  Metadata:
    major_brand     : isom
    minor_version   : 512
    compatible_brands: isomiso2avc1mp41
    encoder         : Lavf58.76.100
  Stream #0:0(und): Video: h264 (avc1 / 0x31637661), yuv420p(tv, bt470bg/bt470bg/smpte170m, progressive), 1080x1920, q=2-31, 29.83 fps, 11456 tbn (default)
    Metadata:
      handler_name    : VideoHandler
      vendor_id       : [0][0][0][0]
      encoder         : Lavc58.134.100 libx264
    Side data:
      cpb: bitrate max/min/avg: 0/0/0 buffer size: 0 vbv_delay: N/A
frame=    1 fps=0.0 q=0.0 size=       0kB time=00:00:00.00 bitrate=N/A speed=   0x    frame=   29 fps=0.0 q=10.0 size=     256kB time=00:00:00.80 bitrate=2607.1kbits/s speed=1.54x    frame=   70 fps= 68 q=10.0 size=     512kB time=00:00:02.17 bitrate=1925.2kbits/s speed=2.11x    frame=  108 fps= 70 q=10.0 size=     512kB time=00:00:03.45 bitrate=1214.9kbits/s speed=2.25x    frame=  136 fps= 66 q=10.0 size=     512kB time=00:00:04.39 bitrate= 955.3kbits/s speed=2.14x    frame=  167 fps= 65 q=10.0 size=     768kB time=00:00:05.43 bitrate=1158.7kbits/s speed=2.12x    frame=  186 fps= 61 q=10.0 size=     768kB time=00:00:06.06 bitrate=1037.0kbits/s speed=1.98x    frame=  199 fps= 55 q=12.0 size=     768kB time=00:00:06.50 bitrate= 967.5kbits/s speed= 1.8x    frame=  213 fps= 52 q=12.0 size=    1024kB time=00:00:06.97 bitrate=1203.2kbits/s speed= 1.7x    frame=  226 fps= 48 q=10.0 size=    1024kB time=00:00:07.40 bitrate=1132.4kbits/s speed=1.59x    frame=  237 fps= 46 q=11.0 size=    1024kB time=00:00:07.77 bitrate=1078.7kbits/s speed= 1.5x    frame=  253 fps= 44 q=9.0 size=    1536kB time=00:00:08.31 bitrate=1513.7kbits/s speed=1.46x    frame=  275 fps= 44 q=10.0 size=    1792kB time=00:00:09.05 bitrate=1622.1kbits/s speed=1.46x    frame=  309 fps= 46 q=11.0 size=    1792kB time=00:00:10.19 bitrate=1440.7kbits/s speed=1.51x    frame=  342 fps= 47 q=11.0 size=    2048kB time=00:00:11.29 bitrate=1485.2kbits/s speed=1.56x    frame=  369 fps= 47 q=11.0 size=    2048kB time=00:00:12.20 bitrate=1375.1kbits/s speed=1.57x    frame=  394 fps= 48 q=13.0 size=    2560kB time=00:00:13.03 bitrate=1608.4kbits/s speed=1.57x    frame=  417 fps= 47 q=12.0 size=    2816kB time=00:00:13.81 bitrate=1670.4kbits/s speed=1.57x    frame=  445 fps= 48 q=11.0 size=    3072kB time=00:00:14.74 bitrate=1706.3kbits/s speed=1.58x    frame=  484 fps= 49 q=17.0 size=    3328kB time=00:00:16.05 bitrate=1698.0kbits/s speed=1.63x    frame=  520 fps= 50 q=10.0 size=    4352kB time=00:00:17.26 bitrate=2065.3kbits/s speed=1.67x    frame=  549 fps= 50 q=11.0 size=    4352kB time=00:00:18.23 bitrate=1955.2kbits/s speed=1.68x    frame=  581 fps= 51 q=11.0 size=    4352kB time=00:00:19.30 bitrate=1846.5kbits/s speed= 1.7x    frame=  610 fps= 51 q=10.0 size=    4608kB time=00:00:20.27 bitrate=1861.4kbits/s speed= 1.7x    frame=  640 fps= 52 q=10.0 size=    4608kB time=00:00:21.28 bitrate=1773.5kbits/s speed=1.71x    frame=  675 fps= 52 q=10.0 size=    4608kB time=00:00:22.45 bitrate=1680.9kbits/s speed=1.74x    frame=  700 fps= 52 q=10.0 size=    4864kB time=00:00:23.29 bitrate=1710.4kbits/s speed=1.74x    frame=  731 fps= 52 q=12.0 size=    5120kB time=00:00:24.33 bitrate=1723.6kbits/s speed=1.75x    frame=  766 fps= 53 q=10.0 size=    5632kB time=00:00:25.50 bitrate=1808.7kbits/s speed=1.76x    frame=  806 fps= 54 q=10.0 size=    5632kB time=00:00:26.84 bitrate=1718.4kbits/s speed=1.79x    frame=  835 fps= 54 q=10.0 size=    5632kB time=00:00:27.82 bitrate=1658.4kbits/s speed= 1.8x    frame=  856 fps= 54 q=10.0 size=    5888kB time=00:00:28.52 bitrate=1691.0kbits/s speed=1.78x    frame=  866 fps= 52 q=10.0 size=    5888kB time=00:00:28.86 bitrate=1671.3kbits/s speed=1.75x    frame=  885 fps= 52 q=10.0 size=    5888kB time=00:00:29.49 bitrate=1635.2kbits/s speed=1.73x    [mp4 @ 0x557a6f40a580] Starting second pass: moving the moov atom to the beginning of the file
frame=  895 fps= 52 q=-1.0 Lsize=    6003kB time=00:00:29.96 bitrate=1641.1kbits/s speed=1.74x    
video:5999kB audio:0kB subtitle:0kB other streams:0kB global headers:0kB muxing overhead: 0.073780%
[libx264 @ 0x557a6f409b40] frame I:4     Avg QP:10.75  size:290985
[libx264 @ 0x557a6f409b40] frame P:891   Avg QP:10.78  size:  5587
[libx264 @ 0x557a6f409b40] mb I  I16..4: 100.0%  0.0%  0.0%
[libx264 @ 0x557a6f409b40] mb P  I16..4:  0.6%  0.0%  0.0%  P16..4:  8.7%  0.0%  0.0%  0.0%  0.0%    skip:90.7%
[libx264 @ 0x557a6f409b40] coded y,uvDC,uvAC intra: 48.7% 0.0% 0.0% inter: 3.5% 0.0% 0.0%
[libx264 @ 0x557a6f409b40] i16 v,h,dc,p: 71%  9% 10% 10%
[libx264 @ 0x557a6f409b40] i8c dc,h,v,p: 100%  0%  0%  0%
[libx264 @ 0x557a6f409b40] kb/s:1637.86
ffmpeg version 4.4.2-0ubuntu0.22.04.1 Copyright (c) 2000-2021 the FFmpeg developers
  built with gcc 11 (Ubuntu 11.2.0-19ubuntu1)
  configuration: --prefix=/usr --extra-version=0ubuntu0.22.04.1 --toolchain=hardened --libdir=/usr/lib/x86_64-linux-gnu --incdir=/usr/include/x86_64-linux-gnu --arch=amd64 --enable-gpl --disable-stripping --enable-gnutls --enable-ladspa --enable-libaom --enable-libass --enable-libbluray --enable-libbs2b --enable-libcaca --enable-libcdio --enable-libcodec2 --enable-libdav1d --enable-libflite --enable-libfontconfig --enable-libfreetype --enable-libfribidi --enable-libgme --enable-libgsm --enable-libjack --enable-libmp3lame --enable-libmysofa --enable-libopenjpeg --enable-libopenmpt --enable-libopus --enable-libpulse --enable-librabbitmq --enable-librubberband --enable-libshine --enable-libsnappy --enable-libsoxr --enable-libspeex --enable-libsrt --enable-libssh --enable-libtheora --enable-libtwolame --enable-libvidstab --enable-libvorbis --enable-libvpx --enable-libwebp --enable-libx265 --enable-libxml2 --enable-libxvid --enable-libzimg --enable-libzmq --enable-libzvbi --enable-lv2 --enable-omx --enable-openal --enable-opencl --enable-opengl --enable-sdl2 --enable-pocketsphinx --enable-librsvg --enable-libmfx --enable-libdc1394 --enable-libdrm --enable-libiec61883 --enable-chromaprint --enable-frei0r --enable-libx264 --enable-shared
  libavutil      56. 70.100 / 56. 70.100
  libavcodec     58.134.100 / 58.134.100
  libavformat    58. 76.100 / 58. 76.100
  libavdevice    58. 13.100 / 58. 13.100
  libavfilter     7.110.100 /  7.110.100
  libswscale      5.  9.100 /  5.  9.100
  libswresample   3.  9.100 /  3.  9.100
  libpostproc    55.  9.100 / 55.  9.100
Input #0, mov,mp4,m4a,3gp,3g2,mj2, from '/home/paulo/sportscuts/agents/TakeVideoProject/pending/1_clip_20250901_201811.mp4':
  Metadata:
    major_brand     : isom
    minor_version   : 512
    compatible_brands: isomiso2avc1mp41
    encoder         : Lavf58.76.100
  Duration: 00:00:30.00, start: 0.000000, bitrate: 1639 kb/s
  Stream #0:0(und): Video: h264 (Constrained Baseline) (avc1 / 0x31637661), yuv420p(tv, bt470bg/bt470bg/smpte170m), 1080x1920, 1638 kb/s, 29.83 fps, 29.83 tbr, 11456 tbn, 59.67 tbc (default)
    Metadata:
      handler_name    : VideoHandler
      vendor_id       : [0][0][0][0]
Input #1, png_pipe, from '/home/paulo/sportscuts/agents/TakeVideoProject/template.png':
  Duration: N/A, bitrate: N/A
  Stream #1:0: Video: png, rgba(pc), 1024x1536, 25 fps, 25 tbr, 25 tbn, 25 tbc
Stream mapping:
  Stream #0:0 (h264) -> overlay:main
  Stream #1:0 (png) -> overlay:overlay
  overlay -> Stream #0:0 (libx264)
Press [q] to stop, [?] for help
[libx264 @ 0x5c0b784ef140] using cpu capabilities: MMX2 SSE2Fast LZCNT SSSE3 SSE4.2
[libx264 @ 0x5c0b784ef140] profile High, level 4.0, 4:2:0, 8-bit
[libx264 @ 0x5c0b784ef140] 264 - core 163 r3060 5db6aa6 - H.264/MPEG-4 AVC codec - Copyleft 2003-2021 - http://www.videolan.org/x264.html - options: cabac=1 ref=3 deblock=1:0:0 analyse=0x3:0x113 me=hex subme=7 psy=1 psy_rd=1.00:0.00 mixed_ref=1 me_range=16 chroma_me=1 trellis=1 8x8dct=1 cqm=0 deadzone=21,11 fast_pskip=1 chroma_qp_offset=-2 threads=3 lookahead_threads=1 sliced_threads=0 nr=0 decimate=1 interlaced=0 bluray_compat=0 constrained_intra=0 bframes=3 b_pyramid=2 b_adapt=1 b_bias=0 direct=1 weightb=1 open_gop=0 weightp=2 keyint=250 keyint_min=25 scenecut=40 intra_refresh=0 rc_lookahead=40 rc=crf mbtree=1 crf=23.0 qcomp=0.60 qpmin=0 qpmax=69 qpstep=4 ip_ratio=1.40 aq=1:1.00
Output #0, mp4, to '/home/paulo/sportscuts/agents/TakeVideoProject/pending/overlay_1_clip_20250901_201811.mp4':
  Metadata:
    major_brand     : isom
    minor_version   : 512
    compatible_brands: isomiso2avc1mp41
    encoder         : Lavf58.76.100
  Stream #0:0: Video: h264 (avc1 / 0x31637661), yuv420p(tv, bt470bg/bt470bg/smpte170m, progressive), 1080x1920, q=2-31, 29.83 fps, 11456 tbn (default)
    Metadata:
      encoder         : Lavc58.134.100 libx264
    Side data:
      cpb: bitrate max/min/avg: 0/0/0 buffer size: 0 vbv_delay: N/A
frame=    1 fps=0.0 q=0.0 size=       0kB time=00:00:00.00 bitrate=N/A speed=   0x    frame=    8 fps=0.0 q=0.0 size=       0kB time=00:00:00.00 bitrate=N/A speed=   0x    frame=   41 fps= 39 q=0.0 size=       0kB time=00:00:00.00 bitrate=N/A speed=   0x    frame=   53 fps= 34 q=29.0 size=       0kB time=00:00:00.10 bitrate=   3.8kbits/s speed=0.0637x    frame=   64 fps= 30 q=29.0 size=       0kB time=00:00:00.46 bitrate=   0.8kbits/s speed=0.222x    frame=   80 fps= 30 q=29.0 size=       0kB time=00:00:01.00 bitrate=   0.4kbits/s speed=0.376x    frame=   92 fps= 29 q=29.0 size=       0kB time=00:00:01.40 bitrate=   0.3kbits/s speed=0.44x    frame=  103 fps= 28 q=29.0 size=       0kB time=00:00:01.77 bitrate=   0.2kbits/s speed=0.478x    frame=  114 fps= 27 q=29.0 size=       0kB time=00:00:02.14 bitrate=   0.2kbits/s speed=0.506x    frame=  128 fps= 27 q=29.0 size=       0kB time=00:00:02.61 bitrate=   0.1kbits/s speed=0.548x    frame=  142 fps= 27 q=29.0 size=       0kB time=00:00:03.08 bitrate=   0.1kbits/s speed=0.585x    frame=  155 fps= 27 q=29.0 size=       0kB time=00:00:03.51 bitrate=   0.1kbits/s speed=0.61x    frame=  163 fps= 26 q=29.0 size=       0kB time=00:00:03.78 bitrate=   0.1kbits/s speed=0.596x    frame=  168 fps= 24 q=29.0 size=       0kB time=00:00:03.95 bitrate=   0.1kbits/s speed=0.573x    frame=  174 fps= 23 q=29.0 size=       0kB time=00:00:04.15 bitrate=   0.1kbits/s speed=0.557x    frame=  181 fps= 23 q=29.0 size=       0kB time=00:00:04.39 bitrate=   0.1kbits/s speed=0.551x    frame=  195 fps= 23 q=29.0 size=       0kB time=00:00:04.86 bitrate=   0.1kbits/s speed=0.569x    frame=  208 fps= 23 q=29.0 size=       0kB time=00:00:05.29 bitrate=   0.1kbits/s speed=0.583x    frame=  220 fps= 23 q=29.0 size=       0kB time=00:00:05.69 bitrate=   0.1kbits/s speed=0.586x    frame=  233 fps= 23 q=29.0 size=       0kB time=00:00:06.13 bitrate=   0.1kbits/s speed=0.598x    frame=  239 fps= 22 q=29.0 size=     256kB time=00:00:06.33 bitrate= 331.1kbits/s speed=0.588x    frame=  244 fps= 22 q=29.0 size=     256kB time=00:00:06.50 bitrate= 322.6kbits/s speed=0.576x    frame=  250 fps= 21 q=29.0 size=     256kB time=00:00:06.70 bitrate= 312.9kbits/s speed=0.56x    frame=  258 fps= 21 q=29.0 size=     256kB time=00:00:06.97 bitrate= 300.8kbits/s speed=0.558x    frame=  269 fps= 21 q=29.0 size=     256kB time=00:00:07.34 bitrate= 285.7kbits/s speed=0.564x    frame=  281 fps= 21 q=29.0 size=     256kB time=00:00:07.74 bitrate= 270.9kbits/s speed=0.572x    frame=  289 fps= 21 q=29.0 size=     256kB time=00:00:08.01 bitrate= 261.8kbits/s speed=0.569x    frame=  298 fps= 20 q=29.0 size=     512kB time=00:00:08.31 bitrate= 504.6kbits/s speed=0.567x    frame=  305 fps= 20 q=29.0 size=     512kB time=00:00:08.54 bitrate= 490.7kbits/s speed=0.561x    frame=  313 fps= 20 q=29.0 size=     512kB time=00:00:08.81 bitrate= 475.8kbits/s speed=0.561x    frame=  322 fps= 20 q=29.0 size=     512kB time=00:00:09.11 bitrate= 460.1kbits/s speed=0.557x    frame=  329 fps= 20 q=29.0 size=     512kB time=00:00:09.35 bitrate= 448.5kbits/s speed=0.555x    frame=  337 fps= 19 q=29.0 size=     512kB time=00:00:09.62 bitrate= 436.0kbits/s speed=0.553x    frame=  345 fps= 19 q=29.0 size=     512kB time=00:00:09.88 bitrate= 424.2kbits/s speed=0.55x    frame=  349 fps= 19 q=29.0 size=     512kB time=00:00:10.02 bitrate= 418.5kbits/s speed=0.541x    frame=  356 fps= 19 q=29.0 size=     512kB time=00:00:10.25 bitrate= 409.0kbits/s speed=0.538x    frame=  366 fps= 19 q=29.0 size=     512kB time=00:00:10.59 bitrate= 396.0kbits/s speed=0.54x    frame=  379 fps= 19 q=29.0 size=     512kB time=00:00:11.02 bitrate= 380.4kbits/s speed=0.545x    frame=  385 fps= 19 q=29.0 size=     512kB time=00:00:11.22 bitrate= 373.6kbits/s speed=0.541x    frame=  394 fps= 19 q=29.0 size=     512kB time=00:00:11.53 bitrate= 363.8kbits/s speed=0.542x    frame=  407 fps= 19 q=29.0 size=     512kB time=00:00:11.96 bitrate= 350.5kbits/s speed=0.548x    frame=  417 fps= 19 q=29.0 size=     512kB time=00:00:12.30 bitrate= 341.0kbits/s speed=0.55x    frame=  424 fps= 19 q=29.0 size=     512kB time=00:00:12.53 bitrate= 334.6kbits/s speed=0.548x    frame=  429 fps= 18 q=29.0 size=     512kB time=00:00:12.70 bitrate= 330.2kbits/s speed=0.543x    frame=  435 fps= 18 q=29.0 size=     512kB time=00:00:12.90 bitrate= 325.0kbits/s speed=0.535x    frame=  446 fps= 18 q=29.0 size=     512kB time=00:00:13.27 bitrate= 316.0kbits/s speed=0.535x    frame=  450 fps= 18 q=29.0 size=     768kB time=00:00:13.40 bitrate= 469.3kbits/s speed=0.528x    frame=  456 fps= 18 q=29.0 size=     768kB time=00:00:13.60 bitrate= 462.3kbits/s speed=0.525x    frame=  463 fps= 17 q=29.0 size=     768kB time=00:00:13.84 bitrate= 454.5kbits/s speed=0.523x    frame=  470 fps= 17 q=29.0 size=     768kB time=00:00:14.07 bitrate= 446.9kbits/s speed=0.52x    frame=  475 fps= 17 q=29.0 size=     768kB time=00:00:14.24 bitrate= 441.7kbits/s speed=0.515x    frame=  487 fps= 17 q=29.0 size=     768kB time=00:00:14.64 bitrate= 429.5kbits/s speed=0.519x    frame=  497 fps= 17 q=29.0 size=     768kB time=00:00:14.98 bitrate= 419.9kbits/s speed=0.521x    frame=  507 fps= 17 q=29.0 size=     768kB time=00:00:15.31 bitrate= 410.7kbits/s speed=0.524x    frame=  514 fps= 17 q=29.0 size=     768kB time=00:00:15.55 bitrate= 404.5kbits/s speed=0.521x    frame=  525 fps= 17 q=29.0 size=     768kB time=00:00:15.92 bitrate= 395.2kbits/s speed=0.525x    frame=  532 fps= 17 q=29.0 size=     768kB time=00:00:16.15 bitrate= 389.4kbits/s speed=0.522x    frame=  545 fps= 17 q=29.0 size=     768kB time=00:00:16.59 bitrate= 379.2kbits/s speed=0.526x    frame=  561 fps= 17 q=29.0 size=    1024kB time=00:00:17.12 bitrate= 489.8kbits/s speed=0.534x    frame=  575 fps= 18 q=29.0 size=    1024kB time=00:00:17.59 bitrate= 476.7kbits/s speed=0.539x    frame=  591 fps= 18 q=29.0 size=    1024kB time=00:00:18.13 bitrate= 462.6kbits/s speed=0.546x    frame=  607 fps= 18 q=29.0 size=    1024kB time=00:00:18.67 bitrate= 449.3kbits/s speed=0.553x    frame=  617 fps= 18 q=29.0 size=    1024kB time=00:00:19.00 bitrate= 441.4kbits/s speed=0.554x    frame=  625 fps= 18 q=29.0 size=    1024kB time=00:00:19.27 bitrate= 435.3kbits/s speed=0.553x    frame=  636 fps= 18 q=29.0 size=    1024kB time=00:00:19.64 bitrate= 427.1kbits/s speed=0.554x    frame=  647 fps= 18 q=29.0 size=    1024kB time=00:00:20.01 bitrate= 419.2kbits/s speed=0.556x    frame=  657 fps= 18 q=29.0 size=    1024kB time=00:00:20.34 bitrate= 412.3kbits/s speed=0.557x    frame=  668 fps= 18 q=29.0 size=    1024kB time=00:00:20.71 bitrate= 405.0kbits/s speed=0.559x    frame=  681 fps= 18 q=29.0 size=    1024kB time=00:00:21.15 bitrate= 396.6kbits/s speed=0.563x    frame=  691 fps= 18 q=29.0 size=    1024kB time=00:00:21.48 bitrate= 390.4kbits/s speed=0.563x    frame=  703 fps= 18 q=29.0 size=    1024kB time=00:00:21.88 bitrate= 383.3kbits/s speed=0.566x    frame=  715 fps= 18 q=29.0 size=    1024kB time=00:00:22.29 bitrate= 376.3kbits/s speed=0.569x    frame=  731 fps= 18 q=29.0 size=    1024kB time=00:00:22.82 bitrate= 367.5kbits/s speed=0.574x    frame=  745 fps= 18 q=29.0 size=    1024kB time=00:00:23.29 bitrate= 360.1kbits/s speed=0.578x    frame=  760 fps= 19 q=29.0 size=    1024kB time=00:00:23.79 bitrate= 352.5kbits/s speed=0.583x    frame=  772 fps= 19 q=29.0 size=    1280kB time=00:00:24.20 bitrate= 433.3kbits/s speed=0.585x    frame=  783 fps= 19 q=29.0 size=    1280kB time=00:00:24.56 bitrate= 426.8kbits/s speed=0.587x    frame=  794 fps= 19 q=29.0 size=    1280kB time=00:00:24.93 bitrate= 420.5kbits/s speed=0.589x    frame=  809 fps= 19 q=29.0 size=    1536kB time=00:00:25.44 bitrate= 494.6kbits/s speed=0.594x    frame=  822 fps= 19 q=29.0 size=    1536kB time=00:00:25.87 bitrate= 486.3kbits/s speed=0.597x    frame=  834 fps= 19 q=29.0 size=    1536kB time=00:00:26.27 bitrate= 478.8kbits/s speed=0.598x    frame=  844 fps= 19 q=29.0 size=    1536kB time=00:00:26.61 bitrate= 472.8kbits/s speed=0.598x    frame=  849 fps= 19 q=29.0 size=    1536kB time=00:00:26.78 bitrate= 469.8kbits/s speed=0.593x    frame=  858 fps= 19 q=29.0 size=    1536kB time=00:00:27.08 bitrate= 464.6kbits/s speed=0.591x    frame=  864 fps= 19 q=29.0 size=    1536kB time=00:00:27.28 bitrate= 461.2kbits/s speed=0.589x    frame=  870 fps= 19 q=29.0 size=    1536kB time=00:00:27.48 bitrate= 457.8kbits/s speed=0.585x    frame=  877 fps= 18 q=29.0 size=    1536kB time=00:00:27.72 bitrate= 453.9kbits/s speed=0.582x    frame=  881 fps= 18 q=29.0 size=    1536kB time=00:00:27.85 bitrate= 451.7kbits/s speed=0.577x    frame=  886 fps= 18 q=29.0 size=    1536kB time=00:00:28.02 bitrate= 449.0kbits/s speed=0.573x    frame=  893 fps= 18 q=29.0 size=    1536kB time=00:00:28.25 bitrate= 445.3kbits/s speed=0.572x    frame=  895 fps= 17 q=-1.0 Lsize=    1612kB time=00:00:29.89 bitrate= 441.6kbits/s speed=0.583x    
video:1601kB audio:0kB subtitle:0kB other streams:0kB global headers:0kB muxing overhead: 0.695210%
[libx264 @ 0x5c0b784ef140] frame I:4     Avg QP:13.79  size:161980
[libx264 @ 0x5c0b784ef140] frame P:255   Avg QP:17.10  size:  3228
[libx264 @ 0x5c0b784ef140] frame B:636   Avg QP:14.31  size:   263
[libx264 @ 0x5c0b784ef140] consecutive B-frames:  4.6%  1.8%  0.7% 93.0%
[libx264 @ 0x5c0b784ef140] mb I  I16..4: 31.8% 44.4% 23.7%
[libx264 @ 0x5c0b784ef140] mb P  I16..4:  0.3%  0.4%  0.0%  P16..4:  4.8%  1.1%  0.9%  0.0%  0.0%    skip:92.5%
[libx264 @ 0x5c0b784ef140] mb B  I16..4:  0.0%  0.0%  0.0%  B16..8:  2.8%  0.0%  0.0%  direct: 0.0%  skip:97.2%  L0:54.3% L1:45.6% BI: 0.1%
[libx264 @ 0x5c0b784ef140] 8x8 transform intra:48.4% inter:59.6%
[libx264 @ 0x5c0b784ef140] coded y,uvDC,uvAC intra: 49.9% 3.7% 3.3% inter: 0.7% 0.0% 0.0%
[libx264 @ 0x5c0b784ef140] i16 v,h,dc,p: 53% 12% 15% 21%
[libx264 @ 0x5c0b784ef140] i8 v,h,dc,ddl,ddr,vr,hd,vl,hu: 50%  7% 29%  2%  2%  4%  1%  3%  1%
[libx264 @ 0x5c0b784ef140] i4 v,h,dc,ddl,ddr,vr,hd,vl,hu: 48% 12% 14%  4%  5%  8%  2%  5%  2%
[libx264 @ 0x5c0b784ef140] i8c dc,h,v,p: 97%  1%  1%  1%
[libx264 @ 0x5c0b784ef140] Weighted P-Frames: Y:0.0% UV:0.0%
[libx264 @ 0x5c0b784ef140] ref P L0: 87.3%  4.9%  5.9%  1.9%
[libx264 @ 0x5c0b784ef140] ref B L0: 62.7% 36.4%  0.9%
[libx264 @ 0x5c0b784ef140] ref B L1: 98.7%  1.3%
[libx264 @ 0x5c0b784ef140] kb/s:436.90
 Clip criado: /home/paulo/sportscuts/agents/TakeVideoProject/pending/1_clip_20250901_201811.mp4
Sinalizador criado: 1_clip_20250901_201811.done
 Metadata criada: 1_clip_20250901_201811.json
